<svg xmlns="http://www.w3.org/2000/svg" xmlns:xlink="http://www.w3.org/1999/xlink" width="1080" zoomAndPan="magnify" viewBox="0 0 810 1439.999935" height="1920" preserveAspectRatio="xMidYMid meet" version="1.0"><defs><clipPath id="a5924d2df6"><path d="M 463.035156 1062 L 810 1062 L 810 1440 L 463.035156 1440 Z M 463.035156 1062 " clip-rule="nonzero"/></clipPath><clipPath id="17499f920a"><path d="M 0 0 L 313 0 L 313 384 L 0 384 Z M 0 0 " clip-rule="nonzero"/></clipPath><clipPath id="62a08d12f3"><path d="M 2.320312 520.011719 L -272.425781 214.339844 L 159.308594 -173.714844 L 434.054688 131.957031 Z M 2.320312 520.011719 " clip-rule="nonzero"/></clipPath><clipPath id="e137713d46"><path d="M 2.320312 520.011719 L -272.425781 214.339844 L 159.308594 -173.714844 L 434.054688 131.957031 Z M 2.320312 520.011719 " clip-rule="nonzero"/></clipPath></defs><rect x="-81" width="972" fill="#ffffff" y="-143.999994" height="1727.999922" fill-opacity="1"/><rect x="-81" width="972" fill="#ffffff" y="-143.999994" height="1727.999922" fill-opacity="1"/><rect x="-81" width="972" fill="#efefef" y="-143.999994" height="1727.999922" fill-opacity="1"/><g clip-path="url(#a5924d2df6)"><path fill="#d4d4d4" d="M 887.6875 1199.355469 C 884.617188 1198.128906 881.75 1196.695312 878.679688 1195.46875 C 848.378906 1182.367188 826.675781 1163.535156 806.203125 1132.625 C 803.539062 1128.734375 800.878906 1124.230469 798.011719 1119.726562 C 782.042969 1093.933594 761.976562 1061.589844 729.015625 1062.410156 C 690.113281 1063.023438 666.773438 1102.738281 644.046875 1141.015625 C 630.125 1164.558594 617.019531 1186.664062 601.050781 1199.5625 C 588.5625 1209.59375 571.773438 1218.597656 554.164062 1228.21875 C 511.785156 1251.148438 463.875 1277.144531 463.875 1325.453125 C 463.875 1369.261719 511.785156 1398.328125 553.960938 1423.917969 C 574.84375 1436.609375 594.703125 1448.480469 607.601562 1461.378906 C 620.296875 1474.070312 630.738281 1492.492188 642 1512.144531 C 663.703125 1550.628906 686.222656 1590.339844 728.605469 1590.339844 C 728.605469 1590.339844 728.808594 1590.339844 728.808594 1590.339844 C 867.214844 1589.726562 993.539062 1463.425781 993.742188 1325.453125 C 993.949219 1245.210938 949.316406 1225.96875 887.6875 1199.355469 Z M 728.808594 1588.5 C 728.808594 1588.5 728.605469 1588.5 728.605469 1588.5 C 687.453125 1588.5 665.136719 1549.195312 643.636719 1511.324219 C 632.582031 1491.675781 621.933594 1472.839844 609.035156 1460.148438 C 595.933594 1447.253906 576.074219 1435.175781 554.984375 1422.484375 C 513.21875 1396.898438 465.921875 1368.238281 465.921875 1325.453125 C 465.921875 1278.371094 513.21875 1252.785156 554.984375 1230.0625 C 572.796875 1220.441406 589.585938 1211.433594 602.074219 1201.199219 C 618.453125 1188.097656 631.558594 1165.785156 645.683594 1142.039062 C 668 1104.171875 691.34375 1065.070312 728.808594 1064.253906 C 729.21875 1064.253906 729.421875 1064.253906 729.832031 1064.253906 C 760.953125 1064.253906 780.402344 1095.574219 795.964844 1120.75 C 798.832031 1125.253906 801.492188 1129.757812 804.152344 1133.648438 C 825.039062 1164.96875 846.945312 1184.003906 877.65625 1197.308594 C 880.726562 1198.539062 883.796875 1199.972656 886.664062 1201.199219 C 947.675781 1227.402344 991.902344 1246.4375 991.695312 1325.453125 C 991.492188 1462.605469 866.191406 1587.886719 728.808594 1588.5 Z M 728.808594 1588.5 " fill-opacity="1" fill-rule="nonzero"/></g><path fill="#d4d4d4" d="M 968.355469 1324.023438 C 965.695312 1263.632812 918.605469 1239.273438 868.648438 1213.480469 L 862.503906 1210.207031 C 844.691406 1200.996094 826.675781 1184.210938 809.273438 1167.832031 C 783.066406 1143.269531 755.835938 1117.886719 727.375 1116.65625 C 695.4375 1115.222656 665.542969 1146.75 638.929688 1174.589844 C 626.234375 1187.894531 614.15625 1200.585938 602.691406 1208.976562 C 591.839844 1216.960938 579.347656 1224.125 566.246094 1231.496094 C 527.753906 1253.398438 487.828125 1276.121094 486.398438 1323.816406 C 484.964844 1365.78125 527.34375 1393.824219 564.8125 1418.59375 C 581.601562 1429.648438 597.367188 1440.292969 608.421875 1451.347656 C 619.476562 1462.605469 629.511719 1477.550781 639.953125 1493.3125 C 663.089844 1528.316406 686.835938 1564.34375 727.582031 1564.753906 C 728.195312 1564.753906 728.808594 1564.753906 729.421875 1564.753906 C 789.207031 1564.753906 851.039062 1536.300781 899.152344 1486.351562 C 945.425781 1438.65625 970.8125 1379.292969 968.355469 1324.023438 Z M 897.515625 1485.125 C 849.605469 1534.664062 788.390625 1562.910156 729.21875 1562.910156 C 728.605469 1562.910156 727.992188 1562.910156 727.375 1562.910156 C 687.65625 1562.5 664.316406 1526.882812 641.589844 1492.492188 C 631.148438 1476.527344 621.117188 1461.378906 609.855469 1450.121094 C 598.800781 1439.066406 582.828125 1428.421875 566.039062 1417.164062 C 529.1875 1392.597656 487.214844 1364.757812 488.648438 1324.023438 C 490.285156 1277.347656 529.597656 1255.035156 567.472656 1233.339844 C 580.78125 1225.765625 593.269531 1218.597656 604.121094 1210.617188 C 615.792969 1202.019531 627.871094 1189.328125 640.566406 1176.019531 C 666.160156 1149.203125 695.230469 1118.703125 725.535156 1118.703125 C 726.148438 1118.703125 726.761719 1118.703125 727.375 1118.703125 C 755.222656 1119.933594 782.042969 1145.109375 808.042969 1169.46875 C 825.445312 1185.847656 843.464844 1202.632812 861.6875 1212.050781 L 867.828125 1215.324219 C 917.171875 1240.914062 963.851562 1264.863281 966.511719 1324.023438 C 968.765625 1378.882812 943.582031 1437.632812 897.515625 1485.125 Z M 897.515625 1485.125 " fill-opacity="1" fill-rule="nonzero"/><path fill="#d4d4d4" d="M 851.039062 1223.308594 L 846.945312 1220.851562 C 836.296875 1214.710938 825.445312 1207.136719 813.777344 1199.355469 C 783.476562 1178.683594 752.148438 1157.394531 723.894531 1156.371094 C 691.75 1155.347656 654.898438 1181.136719 622.34375 1203.859375 C 615.996094 1208.160156 610.058594 1212.457031 604.53125 1216.144531 C 597.570312 1220.851562 590.199219 1225.355469 582.421875 1230.0625 C 547 1251.558594 506.667969 1275.917969 506.871094 1319.929688 C 507.074219 1358.617188 543.109375 1386.660156 574.84375 1411.429688 C 587.332031 1421.257812 599.207031 1430.46875 608.832031 1439.882812 C 617.636719 1448.890625 626.4375 1459.945312 635.449219 1471.816406 C 658.789062 1502.320312 685.40625 1536.914062 723.28125 1536.914062 C 723.488281 1536.914062 723.894531 1536.914062 724.101562 1536.914062 C 780.402344 1536.09375 843.054688 1505.183594 887.484375 1455.851562 C 925.566406 1413.683594 945.015625 1364.144531 941.125 1319.722656 C 936.417969 1273.050781 891.167969 1246.644531 851.039062 1223.308594 Z M 885.640625 1454.621094 C 841.621094 1503.34375 779.585938 1534.253906 723.691406 1534.867188 C 723.488281 1534.867188 723.28125 1534.867188 722.871094 1534.867188 C 686.019531 1534.867188 659.8125 1500.679688 636.675781 1470.589844 C 627.464844 1458.71875 618.863281 1447.457031 609.855469 1438.453125 C 600.234375 1428.832031 588.359375 1419.617188 575.867188 1409.792969 C 542.90625 1384.203125 508.917969 1357.59375 508.714844 1319.929688 C 508.507812 1276.941406 548.226562 1252.988281 583.238281 1231.699219 C 591.019531 1226.992188 598.59375 1222.488281 605.554688 1217.78125 C 611.289062 1213.890625 617.226562 1209.796875 623.367188 1205.5 C 653.464844 1184.414062 690.726562 1158.417969 721.847656 1158.417969 C 722.460938 1158.417969 723.078125 1158.417969 723.691406 1158.417969 C 751.332031 1159.441406 782.453125 1180.523438 812.546875 1200.996094 C 824.21875 1208.976562 835.273438 1216.347656 845.921875 1222.695312 L 850.015625 1225.148438 C 889.734375 1248.28125 934.574219 1274.484375 938.667969 1320.132812 C 942.558594 1363.9375 923.3125 1412.863281 885.640625 1454.621094 Z M 885.640625 1454.621094 " fill-opacity="1" fill-rule="nonzero"/><path fill="#d4d4d4" d="M 830.566406 1228.015625 C 783.269531 1198.742188 745.394531 1184.210938 718.164062 1184.210938 C 683.355469 1184.414062 594.296875 1220.648438 550.277344 1265.273438 C 533.488281 1282.261719 524.886719 1298.84375 525.09375 1314.402344 C 525.503906 1352.679688 557.648438 1380.929688 586.105469 1405.699219 C 594.296875 1412.863281 602.074219 1419.617188 608.832031 1426.578125 C 615.589844 1433.332031 621.933594 1440.703125 628.894531 1448.480469 C 653.261719 1475.914062 680.695312 1507.027344 718.164062 1507.4375 C 718.574219 1507.4375 718.980469 1507.4375 719.597656 1507.4375 C 768.324219 1507.4375 823.398438 1480.007812 863.324219 1435.789062 C 898.128906 1397.101562 915.738281 1352.886719 911.234375 1314.402344 C 906.730469 1274.894531 862.710938 1247.667969 830.566406 1228.015625 Z M 861.6875 1434.152344 C 822.171875 1477.960938 767.710938 1505.183594 719.597656 1505.183594 C 719.1875 1505.183594 718.777344 1505.183594 718.164062 1505.183594 C 681.71875 1504.777344 655.71875 1475.296875 630.535156 1447.050781 C 623.574219 1439.269531 617.019531 1431.902344 610.265625 1425.144531 C 603.304688 1418.1875 595.523438 1411.429688 587.332031 1404.265625 C 559.285156 1379.703125 527.550781 1351.65625 527.140625 1314.402344 C 526.933594 1299.457031 535.328125 1283.492188 551.710938 1266.703125 C 594.5 1223.308594 684.382812 1186.460938 718.164062 1186.257812 C 718.367188 1186.257812 718.367188 1186.257812 718.574219 1186.257812 C 745.394531 1186.257812 782.859375 1200.996094 829.746094 1229.859375 C 861.480469 1249.507812 904.886719 1276.324219 909.390625 1314.605469 C 913.484375 1352.269531 896.289062 1396.078125 861.6875 1434.152344 Z M 861.6875 1434.152344 " fill-opacity="1" fill-rule="nonzero"/><path fill="#d4d4d4" d="M 810.5 1234.976562 C 775.285156 1215.527344 734.542969 1202.019531 711.40625 1202.019531 C 679.058594 1202.019531 602.074219 1221.671875 563.789062 1260.359375 C 549.457031 1274.894531 542.292969 1290.65625 542.292969 1307.03125 C 542.699219 1345.3125 572.796875 1374.378906 599.207031 1400.171875 C 602.894531 1403.652344 606.375 1407.132812 609.855469 1410.613281 C 613.132812 1413.886719 616.203125 1417.164062 619.476562 1420.4375 C 644.867188 1446.433594 673.53125 1475.707031 711.203125 1476.117188 C 711.613281 1476.117188 711.816406 1476.117188 712.226562 1476.117188 C 756.449219 1476.117188 803.949219 1452.78125 839.164062 1413.683594 C 869.261719 1380.109375 884.207031 1341.21875 880.316406 1307.03125 C 877.859375 1284.105469 852.269531 1257.902344 810.5 1234.976562 Z M 837.730469 1412.25 C 803.335938 1450.527344 755.425781 1474.070312 712.429688 1474.070312 C 712.226562 1474.070312 711.816406 1474.070312 711.613281 1474.070312 C 674.757812 1473.863281 646.300781 1444.796875 621.320312 1419.003906 C 618.046875 1415.730469 614.769531 1412.25 611.699219 1409.179688 C 608.21875 1405.699219 604.738281 1402.21875 601.050781 1398.738281 C 574.84375 1373.355469 545.15625 1344.289062 544.746094 1307.03125 C 544.542969 1291.269531 551.503906 1275.917969 565.632812 1261.792969 C 603.097656 1223.921875 680.695312 1204.066406 711.816406 1204.066406 C 758.085938 1204.066406 872.945312 1257.902344 878.679688 1307.234375 C 882.363281 1340.808594 867.417969 1379.085938 837.730469 1412.25 Z M 837.730469 1412.25 " fill-opacity="1" fill-rule="nonzero"/><path fill="#d4d4d4" d="M 704.855469 1212.664062 C 704.648438 1212.664062 704.242188 1212.664062 704.035156 1212.664062 C 676.394531 1213.074219 609.035156 1224.535156 576.484375 1257.902344 C 564.609375 1269.980469 558.875 1283.898438 559.078125 1299.046875 C 559.488281 1325.863281 578.941406 1361.890625 609.855469 1393.007812 C 641.386719 1424.53125 676.601562 1443.773438 704.035156 1444.183594 C 704.445312 1444.183594 705.058594 1444.183594 705.675781 1444.183594 C 743.347656 1444.183594 783.269531 1425.144531 812.546875 1393.210938 C 838.960938 1364.347656 852.269531 1329.957031 849.195312 1299.046875 C 843.667969 1248.484375 745.804688 1212.664062 704.855469 1212.664062 Z M 810.707031 1391.777344 C 781.835938 1423.304688 742.527344 1442.136719 705.46875 1442.136719 C 705.058594 1442.136719 704.445312 1442.136719 704.035156 1442.136719 C 677.625 1441.726562 642 1422.484375 611.289062 1391.574219 C 580.78125 1360.867188 561.332031 1325.453125 560.921875 1299.046875 C 560.71875 1284.515625 566.449219 1271.207031 577.710938 1259.335938 C 590.199219 1246.4375 608.011719 1236.816406 626.847656 1229.859375 C 613.746094 1234.769531 601.664062 1241.527344 592.042969 1250.738281 C 580.578125 1261.996094 574.84375 1275.300781 575.050781 1290.65625 C 575.253906 1317.675781 591.839844 1350.222656 618.453125 1375.8125 C 642.203125 1398.738281 669.640625 1411.636719 694.003906 1411.636719 C 694.617188 1411.636719 695.4375 1411.636719 696.050781 1411.636719 C 730.039062 1410.613281 764.640625 1394.234375 788.390625 1367.828125 C 808.863281 1345.3125 818.894531 1317.878906 817.054688 1290.65625 C 813.367188 1238.863281 733.929688 1219.621094 696.050781 1218.394531 C 681.308594 1218.191406 655.511719 1220.238281 631.351562 1228.425781 C 659.199219 1218.804688 688.066406 1214.914062 703.832031 1214.710938 C 725.738281 1214.503906 760.75 1224.332031 789.003906 1238.660156 C 809.273438 1248.894531 843.875 1270.390625 846.738281 1299.253906 C 850.015625 1329.550781 836.707031 1363.324219 810.707031 1391.777344 Z M 593.476562 1252.375 C 619.476562 1226.992188 667.183594 1220.648438 691.957031 1220.648438 C 693.390625 1220.648438 694.617188 1220.648438 696.050781 1220.648438 C 713.453125 1221.261719 742.730469 1225.96875 768.324219 1237.433594 C 788.59375 1246.644531 813.164062 1263.429688 815.210938 1290.859375 C 817.050781 1317.472656 807.226562 1344.289062 787.160156 1366.601562 C 763.617188 1392.597656 729.628906 1408.769531 696.253906 1409.792969 C 671.890625 1410.613281 644.25 1397.714844 620.09375 1374.582031 C 593.886719 1349.40625 577.507812 1317.265625 577.300781 1290.859375 C 577.097656 1276.121094 582.625 1263.226562 593.476562 1252.375 Z M 628.078125 1229.652344 C 628.894531 1229.449219 629.714844 1229.039062 630.328125 1228.835938 C 629.511719 1229.039062 628.894531 1229.449219 628.078125 1229.652344 Z M 628.078125 1229.652344 " fill-opacity="1" fill-rule="nonzero"/><path fill="#d4d4d4" d="M 688.066406 1379.90625 C 688.269531 1379.90625 688.476562 1379.90625 688.679688 1379.90625 C 715.296875 1379.703125 741.503906 1368.035156 760.339844 1347.972656 C 777.742188 1329.550781 786.75 1306.417969 785.523438 1282.875 C 784.5 1263.226562 771.804688 1246.847656 748.875 1235.792969 C 731.675781 1227.605469 709.15625 1222.488281 688.476562 1222.285156 C 660.835938 1222.078125 624.597656 1228.425781 605.351562 1247.667969 C 595.933594 1257.082031 591.222656 1268.957031 591.429688 1282.875 C 592.246094 1331.1875 640.769531 1379.90625 688.066406 1379.90625 Z M 606.988281 1249.304688 C 625.210938 1230.882812 659.8125 1224.332031 686.632812 1224.332031 C 687.246094 1224.332031 687.863281 1224.332031 688.476562 1224.332031 C 724.101562 1224.742188 781.429688 1241.117188 783.476562 1282.875 C 784.703125 1305.804688 775.898438 1328.320312 758.703125 1346.335938 C 740.070312 1365.984375 714.476562 1377.449219 688.476562 1377.65625 C 688.269531 1377.65625 688.066406 1377.65625 687.863281 1377.65625 C 641.792969 1377.65625 594.089844 1329.957031 593.476562 1282.671875 C 593.476562 1269.570312 597.980469 1258.3125 606.988281 1249.304688 Z M 606.988281 1249.304688 " fill-opacity="1" fill-rule="nonzero"/><path fill="#d4d4d4" d="M 681.925781 1348.792969 C 682.128906 1348.792969 682.332031 1348.792969 682.539062 1348.792969 C 700.964844 1348.792969 719.800781 1340.601562 733.722656 1326.273438 C 747.644531 1312.148438 755.222656 1293.726562 754.8125 1275.710938 C 754.402344 1259.539062 745.394531 1246.03125 728.398438 1237.023438 C 715.5 1230.0625 698.097656 1225.96875 681.925781 1225.96875 C 681.925781 1225.96875 681.925781 1225.96875 681.71875 1225.96875 C 661.449219 1225.96875 634.628906 1232.722656 619.886719 1247.667969 C 612.3125 1255.445312 608.421875 1264.863281 608.628906 1275.507812 C 609.652344 1312.355469 645.683594 1348.585938 681.925781 1348.792969 Z M 621.527344 1249.304688 C 635.855469 1234.769531 662.0625 1228.21875 681.925781 1228.21875 C 681.925781 1228.21875 681.925781 1228.21875 682.128906 1228.21875 C 709.15625 1228.21875 752.148438 1241.117188 752.96875 1275.917969 C 753.378906 1293.519531 745.804688 1311.332031 732.496094 1325.046875 C 718.574219 1339.171875 700.144531 1347.152344 682.128906 1346.949219 C 647.730469 1346.539062 611.902344 1310.714844 611.082031 1275.917969 C 610.675781 1265.679688 614.359375 1256.878906 621.527344 1249.304688 Z M 621.527344 1249.304688 " fill-opacity="1" fill-rule="nonzero"/><path fill="#d4d4d4" d="M 675.988281 1319.109375 C 676.191406 1319.109375 676.394531 1319.109375 676.601562 1319.109375 C 703.832031 1318.90625 725.738281 1296.796875 725.535156 1270.183594 C 725.535156 1258.3125 719.597656 1248.484375 708.949219 1241.730469 C 700.144531 1236.203125 688.476562 1232.929688 676.601562 1232.929688 C 664.316406 1232.722656 647.527344 1236.203125 637.085938 1246.847656 C 630.738281 1253.195312 627.464844 1261.179688 627.667969 1270.390625 C 627.871094 1283.492188 632.992188 1295.773438 642.203125 1304.984375 C 651.007812 1313.992188 663.089844 1319.109375 675.988281 1319.109375 Z M 638.3125 1248.078125 C 648.140625 1238.25 663.90625 1234.769531 675.578125 1234.769531 C 675.78125 1234.769531 676.191406 1234.769531 676.394531 1234.769531 C 708.539062 1235.179688 723.28125 1253.398438 723.28125 1269.980469 C 723.488281 1295.566406 702.398438 1316.652344 676.394531 1316.855469 C 663.90625 1317.0625 652.238281 1312.148438 643.433594 1303.140625 C 634.628906 1294.136719 629.714844 1282.46875 629.511719 1269.980469 C 629.304688 1261.382812 632.375 1254.011719 638.3125 1248.078125 Z M 638.3125 1248.078125 " fill-opacity="1" fill-rule="nonzero"/><path fill="#d4d4d4" d="M 672.507812 1291.269531 C 672.507812 1291.269531 672.710938 1291.269531 672.710938 1291.269531 C 679.46875 1291.269531 686.019531 1288.402344 690.726562 1283.492188 C 695.230469 1278.78125 697.6875 1272.640625 697.6875 1266.089844 C 697.484375 1252.988281 687.65625 1244.390625 672.710938 1244.390625 C 657.765625 1244.1875 647.9375 1252.785156 647.730469 1266.089844 C 647.730469 1272.847656 650.1875 1279.191406 654.898438 1283.898438 C 659.605469 1288.609375 665.75 1291.269531 672.507812 1291.269531 Z M 672.507812 1246.4375 C 672.710938 1246.4375 672.710938 1246.4375 672.914062 1246.4375 C 686.835938 1246.644531 695.640625 1254.21875 695.847656 1266.089844 C 695.847656 1272.027344 693.59375 1277.757812 689.5 1282.058594 C 685.199219 1286.5625 679.058594 1289.019531 672.914062 1289.019531 C 666.773438 1289.019531 660.835938 1286.765625 656.535156 1282.261719 C 652.238281 1277.964844 649.984375 1272.230469 649.984375 1266.089844 C 649.984375 1254.21875 658.789062 1246.4375 672.507812 1246.4375 Z M 672.507812 1246.4375 " fill-opacity="1" fill-rule="nonzero"/><g clip-path="url(#17499f920a)"><g clip-path="url(#62a08d12f3)"><g clip-path="url(#e137713d46)"><path fill="#cbcbcb" d="M 2.996094 -21.890625 C -22.671875 4.902344 -18.886719 33.769531 -15.136719 61.738281 C -9.246094 106.398438 -3.636719 148.675781 -112.765625 181.761719 C -147.371094 192.230469 -172.339844 205.832031 -187.085938 222.1875 C -200.355469 236.90625 -205.238281 253.550781 -201.363281 271.480469 C -195.660156 299.550781 -167.941406 329.871094 -127.582031 352.703125 C -87.539062 375.355469 -42.472656 386.355469 -7.0625 382.300781 C 87.003906 371.597656 163.003906 341.144531 218.921875 291.96875 C 266.449219 250.183594 297.3125 196.066406 308.265625 135.488281 C 321.863281 60.433594 302.441406 -14.109375 261.019531 -60.191406 C 249.304688 -73.398438 235.265625 -84.363281 219.53125 -92.558594 C 189.953125 -107.707031 156.042969 -110.429688 121.308594 -100.621094 C 82.257812 -89.410156 42.480469 -62.964844 2.996094 -21.890625 Z M 218.441406 -90.492188 C 233.859375 -82.476562 247.746094 -71.6875 259.304688 -58.652344 C 300.261719 -13.082031 319.480469 60.714844 306.003906 135.039062 C 281.882812 268.734375 164.6875 360.261719 -7.34375 379.917969 C -42.34375 383.914062 -86.757812 372.949219 -126.40625 350.5625 C -146.789062 339.09375 -163.726562 325.769531 -176.296875 311.78125 C -188.40625 298.308594 -196.324219 284.328125 -199.128906 270.863281 C -202.707031 253.605469 -198.113281 237.683594 -185.277344 223.507812 C -170.796875 207.546875 -146.160156 194.089844 -112.054688 183.757812 C -61.675781 168.421875 -32.058594 150.332031 -18.726562 126.714844 C -7.007812 105.785156 -9.980469 83.167969 -12.910156 61.289062 C -16.523438 33.816406 -20.332031 5.4375 4.632812 -20.414062 C 105.207031 -125.085938 181.78125 -109.207031 218.441406 -90.492188 Z M 5.84375 68.011719 C 10.425781 108.113281 14.792969 146.074219 -82.507812 176.285156 C -113.46875 185.804688 -135.84375 198.160156 -149.042969 213.128906 C -160.945312 226.617188 -165.25 241.65625 -161.875 258.167969 C -150.890625 311.597656 -56.542969 366.734375 12.175781 359.734375 C 53.0625 355.5625 90.007812 347.179688 121.851562 334.847656 C 139.777344 327.890625 157.125 319.429688 173.414062 309.445312 C 208.9375 287.757812 237.902344 260.324219 259.378906 227.832031 C 286.4375 187.070312 300.644531 139.078125 300.128906 90.050781 C 299.585938 44.617188 286.230469 2.167969 262.507812 -29.570312 C 259.84375 -33.222656 256.996094 -36.5625 254.066406 -39.824219 C 226.683594 -70.285156 190.53125 -84.644531 151.179688 -80.148438 C 109.289062 -75.542969 66.257812 -50.824219 23.351562 -6.832031 C -0.0351562 16.984375 2.925781 42.867188 5.84375 68.011719 Z M 151.546875 -77.839844 C 194.34375 -82.644531 233.179688 -64.957031 260.800781 -28.191406 C 304.355469 30.09375 317.292969 136.21875 257.484375 226.589844 C 236.1875 258.761719 207.480469 285.964844 172.214844 307.421875 C 155.925781 317.40625 138.824219 325.796875 120.988281 332.675781 C 89.226562 344.933594 52.53125 353.25 11.808594 357.425781 C -39.425781 362.671875 -105.070312 333.089844 -138.777344 295.589844 C -149.652344 283.488281 -157.222656 270.589844 -159.808594 257.710938 C -164.605469 234.09375 -155.027344 201.128906 -81.96875 178.4375 C -36.972656 164.523438 -10.382812 148.070312 1.765625 126.753906 C 12.484375 107.8125 10.207031 87.519531 7.980469 67.800781 C 5.1875 43.316406 2.285156 17.84375 24.976562 -5.191406 C 67.617188 -48.792969 110.230469 -73.285156 151.546875 -77.839844 Z M 26.992188 74.296875 C 30.175781 109.910156 33.136719 143.550781 -52.242188 170.644531 C -118.277344 191.835938 -126.84375 222.652344 -122.296875 244.78125 C -117.707031 267.652344 -95.910156 292.589844 -63.992188 311.375 C -32.632812 329.882812 3.117188 339.484375 31.421875 337.003906 C 68.589844 333.695312 101.375 326.722656 129.054688 315.960938 C 144.980469 309.714844 160.25 302.042969 174.691406 292.9375 C 205.859375 273.300781 231.492188 248.710938 250.816406 219.859375 C 275.097656 183.761719 288.035156 141.257812 288.207031 97.824219 C 288.210938 57.480469 276.894531 19.714844 256.265625 -8.753906 C 253.597656 -12.410156 250.761719 -15.910156 247.753906 -19.257812 C 224.074219 -45.601562 192.652344 -58.316406 158.015625 -54.953125 C 120.917969 -51.394531 82.480469 -30.191406 43.953125 8.160156 C 22.839844 29.15625 24.894531 52.132812 26.992188 74.296875 Z M 158.144531 -52.742188 C 196.226562 -56.410156 230.324219 -40.203125 254.320312 -7.46875 C 291.933594 44.207031 302.144531 138.507812 248.761719 218.605469 C 229.695312 247.222656 204.242188 271.496094 173.328125 290.902344 C 158.972656 299.929688 143.867188 307.613281 128.113281 313.707031 C 100.765625 324.320312 68.058594 331.378906 31.140625 334.621094 C 3.246094 337.039062 -31.9375 327.550781 -62.90625 309.308594 C -78.195312 300.402344 -91.042969 290.074219 -100.761719 279.261719 C -111.097656 267.761719 -117.816406 255.804688 -120.152344 244.40625 C -124.503906 223.1875 -116.085938 193.585938 -51.625 172.882812 C 35.578125 145.234375 32.34375 109.046875 29.203125 74.167969 C 27.128906 51.519531 25.238281 30.101562 45.496094 9.878906 C 83.679688 -28.164062 121.535156 -49.160156 158.144531 -52.742188 Z M 47.894531 80.484375 C 48.742188 95.390625 49.648438 110.710938 41.144531 124.871094 C 31.558594 140.933594 10.855469 154.113281 -22.136719 164.996094 C -79.484375 183.960938 -86.890625 211.410156 -82.953125 231.136719 C -74.582031 273.726562 -3.417969 317.898438 50.589844 314.191406 C 84.355469 311.921875 112.253906 306.238281 136.015625 296.980469 C 149.859375 291.519531 163.128906 284.558594 175.570312 276.324219 C 201.851562 259.527344 224.484375 237.632812 242.09375 211.878906 C 263.429688 180.441406 275.265625 143.429688 276.050781 105.335938 C 276.765625 70.09375 267.410156 36.925781 249.789062 11.804688 C 247.210938 8.070312 244.296875 4.484375 241.289062 1.140625 C 221.234375 -21.171875 194.457031 -32.167969 164.785156 -30.007812 C 132.238281 -27.59375 98.472656 -9.8125 64.566406 22.988281 C 45.636719 41.246094 46.707031 61.226562 47.894531 80.484375 Z M 164.816406 -27.558594 C 193.753906 -29.675781 219.8125 -18.964844 239.480469 2.917969 C 242.488281 6.265625 245.246094 9.679688 247.75 13.328125 C 284.660156 65.945312 281.417969 149.070312 240.027344 210.785156 C 222.675781 236.3125 200.300781 257.972656 174.1875 274.617188 C 161.835938 282.773438 148.738281 289.582031 134.894531 295.042969 C 111.382812 304.230469 83.730469 309.847656 50.128906 312.125 C 25.707031 313.75 -4.78125 305.003906 -31.519531 288.703125 C -43.238281 281.703125 -53.890625 273.125 -63.15625 262.992188 C -72.644531 252.4375 -78.839844 241.40625 -80.894531 230.839844 C -86.25 203.847656 -65.65625 181.925781 -21.605469 167.308594 C 53.527344 142.445312 51.757812 110.988281 50.023438 80.433594 C 48.9375 60.777344 47.789062 42.257812 65.773438 24.851562 C 99.578125 -7.546875 132.757812 -25.117188 164.816406 -27.558594 Z M 68.878906 86.757812 C 69.261719 112.011719 69.601562 138.082031 8.042969 159.433594 C -40.617188 176.332031 -46.871094 200.414062 -43.539062 217.742188 C -40.078125 235.730469 -24.503906 254.78125 -0.796875 269.777344 C 22.035156 284.316406 48.46875 292.515625 69.828125 291.625 C 99.539062 290.363281 123.617188 285.941406 143.132812 278.171875 C 155.066406 273.34375 166.328125 267.253906 176.761719 259.894531 C 199.023438 245.003906 218.234375 226.027344 233.445312 203.980469 C 270.191406 149.855469 274.234375 79.351562 243.214844 32.765625 C 240.71875 28.957031 237.890625 25.292969 234.804688 21.859375 C 218.941406 3.691406 195.449219 -6.0625 171.371094 -4.746094 C 143.375 -3.476562 114.359375 10.96875 84.914062 38.210938 C 68.351562 53.410156 68.597656 70.410156 68.878906 86.757812 Z M 171.492188 -2.371094 C 199.976562 -3.617188 224.769531 9.316406 241.265625 34.046875 C 271.835938 79.957031 267.773438 149.234375 231.464844 202.8125 C 216.511719 224.628906 197.472656 243.449219 175.46875 258.109375 C 165.121094 265.390625 153.945312 271.40625 142.261719 276.167969 C 122.988281 283.867188 99.246094 288.144531 69.699219 289.410156 C 48.828125 290.332031 22.875 282.320312 0.359375 267.960938 C -22.789062 253.238281 -37.984375 234.78125 -41.316406 217.453125 C -45.875 193.933594 -28.445312 174.699219 8.738281 161.757812 C 71.871094 139.917969 71.496094 112.949219 71.15625 86.878906 C 70.894531 70.207031 70.742188 54.519531 86.371094 40.007812 C 115.386719 13.148438 143.984375 -1.074219 171.492188 -2.371094 Z M 89.851562 93.195312 C 88.914062 114.050781 87.859375 135.632812 38.21875 154.03125 C -1.675781 168.789062 -6.855469 189.582031 -4.132812 204.507812 C -1.347656 219.847656 11.34375 236.210938 30.660156 249.253906 C 49.269531 261.851562 71.003906 269.3125 88.816406 269.125 C 114.710938 268.96875 134.144531 265.929688 149.917969 259.511719 C 159.773438 255.304688 169.03125 250.085938 177.621094 243.605469 C 195.863281 230.621094 211.65625 214.566406 224.464844 196.230469 C 240.007812 174.035156 249.292969 148.15625 251.535156 121.164062 C 253.34375 96.109375 248.078125 72.144531 236.558594 53.640625 C 234.226562 49.839844 231.554688 46.347656 228.546875 43 C 215.671875 28.507812 197.160156 20.324219 177.875 20.59375 C 154.429688 20.71875 130.085938 31.742188 105.183594 53.351562 C 91.0625 65.574219 90.488281 79.589844 89.851562 93.195312 Z M 178.003906 22.804688 C 201.769531 22.695312 221.914062 34.070312 234.699219 54.847656 C 258.25 92.945312 253.328125 150.578125 222.65625 194.90625 C 209.941406 213.003906 194.320312 228.90625 176.335938 241.660156 C 167.917969 247.984375 158.824219 253.210938 149.136719 257.261719 C 133.535156 263.527344 114.429688 266.582031 88.78125 266.675781 C 51.042969 266.929688 3.613281 234.164062 -1.894531 203.894531 C -5.570312 183.769531 8.53125 167.21875 38.929688 156.03125 C 89.984375 137.136719 90.996094 114.816406 92.054688 93.230469 C 92.613281 79.542969 93.292969 66.675781 106.734375 54.902344 C 131.285156 33.765625 155.210938 22.96875 178.003906 22.804688 Z M 68.398438 148.46875 C 37.1875 161.164062 33.164062 178.585938 35.367188 191.035156 C 40.171875 219.144531 79.316406 244.933594 108.0625 246.398438 C 123.621094 247.152344 141.507812 247.054688 157.117188 240.625 C 165.964844 237.015625 172.6875 231.90625 178.824219 227.011719 C 193.046875 215.933594 205.492188 202.886719 215.902344 188.253906 C 241.765625 151.507812 247.53125 105.679688 230.238281 74.371094 C 228.15625 70.5 225.570312 66.929688 222.558594 63.585938 C 212.839844 52.773438 199.300781 46.328125 184.71875 45.625 C 165.914062 44.53125 145.992188 52.195312 125.710938 68.253906 C 113.777344 77.738281 112.128906 88.839844 110.664062 99.621094 C 108.484375 116.164062 105.953125 133.175781 68.398438 148.46875 Z M 127.242188 70.132812 C 147.097656 54.460938 166.359375 46.921875 184.675781 47.988281 C 203.003906 48.894531 219.519531 59.335938 228.300781 75.488281 C 245.21875 106.207031 239.511719 150.898438 214.09375 186.933594 C 203.777344 201.324219 191.417969 214.296875 177.53125 225.226562 C 171.476562 230.046875 164.929688 235 156.417969 238.464844 C 141.140625 244.746094 123.578125 244.863281 108.347656 244.125 C 80.410156 242.703125 42.367188 217.792969 37.75 190.757812 C 34.871094 174.105469 45.886719 160.324219 69.425781 150.648438 C 108.230469 134.851562 110.839844 116.371094 113.175781 100 C 114.476562 89.210938 115.996094 79.003906 127.242188 70.132812 Z M 98.578125 142.90625 C 76.214844 153.546875 73.265625 167.679688 74.695312 177.71875 C 78.019531 199.863281 105.667969 220.625 127.148438 223.660156 C 138.898438 225.351562 152.378906 226.730469 164.160156 221.730469 C 170.84375 218.824219 175.644531 214.507812 179.941406 210.492188 C 189.980469 201.316406 199.082031 191.269531 207.175781 180.273438 C 228.121094 151.671875 234.417969 119.019531 223.757812 95.089844 C 222.007812 91.074219 219.589844 87.351562 216.660156 84.09375 C 210.105469 76.796875 201.207031 72.074219 191.566406 70.65625 C 177.472656 68.425781 161.8125 72.730469 146.324219 83.085938 C 136.335938 89.734375 133.953125 97.773438 131.378906 106.289062 C 127.71875 118.425781 124.039062 130.882812 98.578125 142.90625 Z M 147.597656 85.195312 C 162.582031 75.140625 177.671875 70.886719 191.109375 73.082031 C 204.480469 75.023438 216.027344 83.730469 221.578125 96.117188 C 231.957031 119.214844 225.703125 151.054688 205.203125 178.941406 C 197.207031 189.699219 188.265625 199.753906 178.234375 208.769531 C 173.941406 212.785156 169.398438 216.867188 163.128906 219.550781 C 151.933594 224.339844 138.777344 222.976562 127.429688 221.386719 C 106.765625 218.398438 80.136719 198.425781 76.835938 177.34375 C 74.84375 164.089844 82.617188 152.910156 99.367188 144.992188 C 125.667969 132.523438 129.808594 119.027344 133.375 107.132812 C 136.1875 98.707031 138.367188 91.476562 147.597656 85.195312 Z M 128.675781 137.421875 C 114.984375 146.160156 113.269531 157.007812 114.175781 164.570312 C 116.164062 181.09375 132.035156 195.992188 146.308594 201.007812 C 152.882812 203.320312 162.824219 206.796875 171.363281 202.84375 C 175.628906 200.871094 178.253906 197.582031 180.609375 194.6875 L 181.21875 193.984375 C 183.40625 191.242188 185.59375 188.503906 187.855469 185.847656 C 191.429688 181.546875 195.097656 177.007812 198.519531 172.539062 C 215.246094 151.144531 221.632812 132.214844 217.332031 116.222656 C 216.253906 111.917969 214.015625 107.878906 211.085938 104.617188 C 207.691406 100.839844 203.355469 97.914062 198.546875 96.183594 C 188.9375 92.5625 178.035156 93.363281 167.074219 98.410156 C 158.285156 102.429688 154.804688 108.039062 150.785156 114.601562 C 146.257812 121.464844 141.355469 129.285156 128.675781 137.421875 Z M 167.953125 100.253906 C 178.335938 95.421875 188.578125 94.75 197.628906 98.09375 C 206.679688 101.441406 212.859375 108.140625 215.105469 116.675781 C 219.121094 131.835938 212.933594 150.121094 196.644531 170.96875 C 193.136719 175.515625 189.648438 179.738281 185.976562 184.277344 C 183.792969 187.019531 181.527344 189.671875 179.34375 192.414062 L 178.734375 193.117188 C 176.460938 195.933594 174.183594 198.914062 170.332031 200.667969 C 163.304688 203.882812 154.9375 201.472656 147 198.675781 C 139.074219 195.71875 132.140625 190.933594 126.507812 184.671875 C 121.1875 178.75 117.234375 171.59375 116.320312 164.195312 C 115.128906 154.25 119.664062 145.675781 129.804688 139.199219 C 142.90625 130.835938 147.988281 122.699219 152.445312 115.589844 C 156.441406 109.515625 159.914062 104.066406 167.953125 100.253906 Z M 164.996094 178.003906 C 167 180.234375 172.933594 187.003906 178.402344 183.949219 C 180.921875 182.617188 181.546875 180.035156 182.15625 177.785156 L 182.363281 176.976562 C 183.75 172.316406 186.261719 168.042969 189.71875 164.46875 C 191.621094 162.449219 193.851562 160.445312 196.078125 158.441406 C 202.679688 152.507812 209.613281 146.429688 210.832031 137.269531 C 211.46875 131.421875 209.566406 125.6875 205.460938 121.464844 L 205.382812 121.378906 C 200.910156 116.398438 194.542969 113.28125 187.855469 113.085938 C 176.429688 112.960938 164.847656 120.421875 158.351562 132.160156 C 150.378906 147.082031 152.742188 164.195312 164.996094 178.003906 Z M 187.976562 115.460938 C 194.085938 115.707031 199.820312 118.464844 203.910156 123.011719 C 207.464844 126.796875 209.238281 131.875 208.726562 136.992188 C 207.550781 145.339844 201.035156 151.195312 194.691406 156.898438 C 192.460938 158.902344 190.148438 160.980469 188.160156 163.078125 C 184.53125 166.804688 181.839844 171.394531 180.347656 176.460938 L 180.140625 177.265625 C 179.636719 179.117188 179.121094 181.132812 177.527344 181.945312 C 174.921875 183.355469 171.347656 181.449219 166.875 176.472656 C 155.3125 163.4375 153.058594 147.308594 160.65625 133.34375 C 166.546875 122.308594 177.289062 115.292969 187.976562 115.460938 Z M 187.976562 115.460938 " fill-opacity="1" fill-rule="nonzero"/></g></g></g></svg>